<svg width="19" height="19" viewBox="0 0 19 19" fill="none" xmlns="http://www.w3.org/2000/svg">
<g clip-path="url(#clip0_912_1414)">
<path d="M11.9659 10.0582C11.9659 10.7954 11.6731 11.5024 11.1518 12.0236C10.6305 12.5449 9.92354 12.8378 9.18634 12.8378C8.44915 12.8378 7.74214 12.5449 7.22087 12.0236C6.69959 11.5024 6.40674 10.7954 6.40674 10.0582C6.40674 9.32097 6.69959 8.61397 7.22087 8.09269C7.74214 7.57141 8.44915 7.27856 9.18634 7.27856C9.92354 7.27856 10.6305 7.57141 11.1518 8.09269C11.6731 8.61397 11.9659 9.32097 11.9659 10.0582Z" fill="white"/>
<path d="M2.51543 5.05547C1.92567 5.05547 1.36007 5.28975 0.94305 5.70677C0.526028 6.12379 0.291748 6.6894 0.291748 7.27916L0.291748 13.9502C0.291748 14.54 0.526028 15.1056 0.94305 15.5226C1.36007 15.9396 1.92567 16.1739 2.51543 16.1739H15.8575C16.4473 16.1739 17.0129 15.9396 17.4299 15.5226C17.8469 15.1056 18.0812 14.54 18.0812 13.9502V7.27916C18.0812 6.6894 17.8469 6.12379 17.4299 5.70677C17.0129 5.28975 16.4473 5.05547 15.8575 5.05547H14.5545C13.9647 5.05535 13.3992 4.82098 12.9823 4.40393L12.0617 3.48333C11.6448 3.06628 11.0793 2.83191 10.4896 2.83179H7.88341C7.2937 2.83191 6.72819 3.06628 6.31126 3.48333L5.39066 4.40393C4.97373 4.82098 4.40822 5.05535 3.81851 5.05547H2.51543ZM3.07135 7.27916C2.92391 7.27916 2.78251 7.22058 2.67826 7.11633C2.574 7.01207 2.51543 6.87067 2.51543 6.72323C2.51543 6.57579 2.574 6.43439 2.67826 6.33014C2.78251 6.22588 2.92391 6.16731 3.07135 6.16731C3.21879 6.16731 3.36019 6.22588 3.46445 6.33014C3.5687 6.43439 3.62727 6.57579 3.62727 6.72323C3.62727 6.87067 3.5687 7.01207 3.46445 7.11633C3.36019 7.22058 3.21879 7.27916 3.07135 7.27916ZM13.0779 10.0588C13.0779 11.0908 12.6679 12.0806 11.9382 12.8104C11.2084 13.5402 10.2186 13.9502 9.18648 13.9502C8.15441 13.9502 7.1646 13.5402 6.43482 12.8104C5.70503 12.0806 5.29504 11.0908 5.29504 10.0588C5.29504 9.02668 5.70503 8.03688 6.43482 7.30709C7.1646 6.5773 8.15441 6.16731 9.18648 6.16731C10.2186 6.16731 11.2084 6.5773 11.9382 7.30709C12.6679 8.03688 13.0779 9.02668 13.0779 10.0588Z" fill="white"/>
</g>
<defs>
<clipPath id="clip0_912_1414">
<rect width="17.7895" height="17.7895" fill="white" transform="translate(0.291992 0.607422)"/>
</clipPath>
</defs>
</svg>
