<svg width="21" height="21" viewBox="0 0 21 21" fill="none" xmlns="http://www.w3.org/2000/svg">
<mask id="mask0_705_958" style="mask-type:alpha" maskUnits="userSpaceOnUse" x="0" y="0" width="21" height="21">
<rect width="21" height="21" fill="#D9D9D9"/>
</mask>
<g mask="url(#mask0_705_958)">
<path d="M5.25 19.25C4.52083 19.25 3.90104 18.9948 3.39062 18.4844C2.88021 17.974 2.625 17.3542 2.625 16.625V4.375C2.625 3.64583 2.88021 3.02604 3.39062 2.51562C3.90104 2.00521 4.52083 1.75 5.25 1.75H14.875V15.75H5.25C5.00208 15.75 4.79427 15.8339 4.62656 16.0016C4.45885 16.1693 4.375 16.3771 4.375 16.625C4.375 16.8729 4.45885 17.0807 4.62656 17.2484C4.79427 17.4161 5.00208 17.5 5.25 17.5H16.625V3.5H18.375V19.25H5.25ZM7.875 14H13.125V3.5H7.875V14ZM6.125 14V3.5H5.25C5.00208 3.5 4.79427 3.58385 4.62656 3.75156C4.45885 3.91927 4.375 4.12708 4.375 4.375V14.1531C4.52083 14.1094 4.66302 14.0729 4.80156 14.0437C4.9401 14.0146 5.08958 14 5.25 14H6.125Z" fill="white"/>
</g>
</svg>
