<svg width="21" height="21" viewBox="0 0 21 21" fill="none" xmlns="http://www.w3.org/2000/svg">
<mask id="mask0_705_965" style="mask-type:alpha" maskUnits="userSpaceOnUse" x="0" y="0" width="21" height="21">
<rect width="21" height="21" fill="#D9D9D9"/>
</mask>
<g mask="url(#mask0_705_965)">
<path d="M10.5 12.25C10.9812 12.25 11.3932 12.0786 11.7359 11.7359C12.0786 11.3932 12.25 10.9812 12.25 10.5C12.25 10.0188 12.0786 9.60677 11.7359 9.26406C11.3932 8.92135 10.9812 8.75 10.5 8.75C10.0188 8.75 9.60677 8.92135 9.26406 9.26406C8.92135 9.60677 8.75 10.0188 8.75 10.5C8.75 10.9812 8.92135 11.3932 9.26406 11.7359C9.60677 12.0786 10.0188 12.25 10.5 12.25ZM7 15.75H14V15.2469C14 14.8969 13.9052 14.576 13.7156 14.2844C13.526 13.9927 13.2635 13.774 12.9281 13.6281C12.549 13.4677 12.1589 13.3438 11.7578 13.2563C11.3568 13.1688 10.9375 13.125 10.5 13.125C10.0625 13.125 9.64323 13.1688 9.24219 13.2563C8.84115 13.3438 8.45104 13.4677 8.07188 13.6281C7.73646 13.774 7.47396 13.9927 7.28438 14.2844C7.09479 14.576 7 14.8969 7 15.2469V15.75ZM15.75 19.25H5.25C4.76875 19.25 4.35677 19.0786 4.01406 18.7359C3.67135 18.3932 3.5 17.9813 3.5 17.5V3.5C3.5 3.01875 3.67135 2.60677 4.01406 2.26406C4.35677 1.92135 4.76875 1.75 5.25 1.75H12.25L17.5 7V17.5C17.5 17.9813 17.3286 18.3932 16.9859 18.7359C16.6432 19.0786 16.2312 19.25 15.75 19.25ZM15.75 17.5V7.74375L11.5063 3.5H5.25V17.5H15.75Z" fill="white"/>
</g>
</svg>
