<svg width="21" height="21" viewBox="0 0 21 21" fill="none" xmlns="http://www.w3.org/2000/svg">
<mask id="mask0_705_998" style="mask-type:alpha" maskUnits="userSpaceOnUse" x="0" y="0" width="21" height="21">
<rect width="21" height="21" fill="#D9D9D9"/>
</mask>
<g mask="url(#mask0_705_998)">
<path d="M9.1875 13.125H11.8125L11.3094 10.3031C11.601 10.1573 11.8307 9.94583 11.9984 9.66875C12.1661 9.39167 12.25 9.08542 12.25 8.75C12.25 8.26875 12.0786 7.85677 11.7359 7.51406C11.3932 7.17135 10.9812 7 10.5 7C10.0188 7 9.60677 7.17135 9.26406 7.51406C8.92135 7.85677 8.75 8.26875 8.75 8.75C8.75 9.08542 8.83385 9.39167 9.00156 9.66875C9.16927 9.94583 9.39896 10.1573 9.69063 10.3031L9.1875 13.125ZM10.5 19.25C8.47292 18.7396 6.79948 17.5766 5.47969 15.7609C4.1599 13.9453 3.5 11.9292 3.5 9.7125V4.375L10.5 1.75L17.5 4.375V9.7125C17.5 11.9292 16.8401 13.9453 15.5203 15.7609C14.2005 17.5766 12.5271 18.7396 10.5 19.25ZM10.5 17.4125C12.0167 16.9312 13.2708 15.9688 14.2625 14.525C15.2542 13.0813 15.75 11.4771 15.75 9.7125V5.57812L10.5 3.60938L5.25 5.57812V9.7125C5.25 11.4771 5.74583 13.0813 6.7375 14.525C7.72917 15.9688 8.98333 16.9312 10.5 17.4125Z" fill="white"/>
</g>
</svg>
