<svg width="17" height="17" viewBox="0 0 17 17" fill="none" xmlns="http://www.w3.org/2000/svg">
<g clip-path="url(#clip0_705_1012)">
<path d="M9.5625 8.5C9.5625 9.08769 9.0877 9.5625 8.5 9.5625C7.9123 9.5625 7.4375 9.08769 7.4375 8.5V1.0625C7.4375 0.475801 7.9123 0 8.5 0C9.0877 0 9.5625 0.475801 9.5625 1.0625V8.5ZM2.65625 8.5C2.65625 11.7273 5.27266 14.3437 8.5 14.3437C11.7273 14.3437 14.3438 11.7273 14.3438 8.5C14.3438 6.69375 13.5236 5.07676 12.2354 4.0043C11.7838 3.6291 11.7207 2.95939 12.0959 2.50816C12.4711 2.05693 13.1418 1.99551 13.5934 2.3707C15.3465 3.83164 16.4688 6.03633 16.4688 8.47012C16.4688 12.8994 12.8994 16.4687 8.5 16.4687C4.10059 16.4687 0.53125 12.8994 0.53125 8.47012C0.53125 6.03633 1.65186 3.83164 3.40664 2.3707C3.8582 1.99551 4.52891 2.05693 4.9041 2.50816C5.24941 2.95939 5.21621 3.6291 4.76465 4.0043C3.47637 5.07676 2.65625 6.69375 2.65625 8.5Z" fill="white"/>
</g>
<defs>
<clipPath id="clip0_705_1012">
<rect width="17" height="17" fill="white"/>
</clipPath>
</defs>
</svg>
