<svg width="21" height="21" viewBox="0 0 21 21" fill="none" xmlns="http://www.w3.org/2000/svg">
<mask id="mask0_705_977" style="mask-type:alpha" maskUnits="userSpaceOnUse" x="0" y="0" width="21" height="21">
<rect width="21" height="21" fill="#D9D9D9"/>
</mask>
<g mask="url(#mask0_705_977)">
<path d="M10.5 19.25L9.625 16.625H3.5C3.01875 16.625 2.60677 16.4536 2.26406 16.1109C1.92135 15.7682 1.75 15.3562 1.75 14.875V3.5C1.75 3.01875 1.92135 2.60677 2.26406 2.26406C2.60677 1.92135 3.01875 1.75 3.5 1.75H8.75L9.51562 4.375H17.5C18.0104 4.375 18.4297 4.53906 18.7578 4.86719C19.0859 5.19531 19.25 5.61458 19.25 6.125V17.5C19.25 17.9813 19.0859 18.3932 18.7578 18.7359C18.4297 19.0786 18.0104 19.25 17.5 19.25H10.5ZM6.25625 12.775C7.2625 12.775 8.0901 12.4505 8.73906 11.8016C9.38802 11.1526 9.7125 10.3104 9.7125 9.275C9.7125 9.15833 9.70885 9.0526 9.70156 8.95781C9.69427 8.86302 9.67604 8.76458 9.64688 8.6625H6.19063V10.0188H8.1375C8.02083 10.4271 7.79844 10.7443 7.47031 10.9703C7.14219 11.1964 6.74479 11.3094 6.27813 11.3094C5.70938 11.3094 5.22083 11.1052 4.8125 10.6969C4.40417 10.2885 4.2 9.78542 4.2 9.1875C4.2 8.58958 4.40417 8.08646 4.8125 7.67812C5.22083 7.26979 5.70938 7.06563 6.27813 7.06563C6.54063 7.06563 6.78854 7.11302 7.02187 7.20781C7.25521 7.3026 7.46667 7.44479 7.65625 7.63438L8.72813 6.60625C8.42188 6.28542 8.05365 6.0375 7.62344 5.8625C7.19323 5.6875 6.7375 5.6 6.25625 5.6C5.27917 5.6 4.44427 5.94635 3.75156 6.63906C3.05885 7.33177 2.7125 8.18125 2.7125 9.1875C2.7125 10.1938 3.05885 11.0432 3.75156 11.7359C4.44427 12.4286 5.27917 12.775 6.25625 12.775ZM12.1188 13.2125L12.6 12.7531C12.3958 12.5052 12.2099 12.2646 12.0422 12.0312C11.8745 11.7979 11.7104 11.55 11.55 11.2875L12.1188 13.2125ZM13.2125 12.0969C13.6208 11.6156 13.9307 11.1562 14.1422 10.7188C14.3536 10.2812 14.4958 9.93854 14.5688 9.69062H11.0906L11.3531 10.6094H12.2281C12.3448 10.8281 12.4833 11.0651 12.6438 11.3203C12.8042 11.5755 12.9938 11.8344 13.2125 12.0969ZM11.375 18.375H17.5C17.7625 18.375 17.974 18.2911 18.1344 18.1234C18.2948 17.9557 18.375 17.7479 18.375 17.5V6.125C18.375 5.8625 18.2948 5.65104 18.1344 5.49063C17.974 5.33021 17.7625 5.25 17.5 5.25H9.77812L10.8063 8.79375H12.5344V7.875H13.4313V8.79375H16.625V9.69062H15.5094C15.3635 10.2448 15.1448 10.7844 14.8531 11.3094C14.5615 11.8344 14.2188 12.3229 13.825 12.775L16.2094 15.1156L15.575 15.75L13.2125 13.3875L12.425 14.1969L13.125 16.625L11.375 18.375Z" fill="white"/>
</g>
</svg>
