<svg width="21" height="21" viewBox="0 0 21 21" fill="none" xmlns="http://www.w3.org/2000/svg">
<mask id="mask0_705_991" style="mask-type:alpha" maskUnits="userSpaceOnUse" x="0" y="0" width="21" height="21">
<rect width="21" height="21" fill="#D9D9D9"/>
</mask>
<g mask="url(#mask0_705_991)">
<path d="M10.4563 15.75C10.7625 15.75 11.0214 15.6443 11.2328 15.4328C11.4443 15.2214 11.55 14.9625 11.55 14.6562C11.55 14.35 11.4443 14.0911 11.2328 13.8797C11.0214 13.6682 10.7625 13.5625 10.4563 13.5625C10.15 13.5625 9.89115 13.6682 9.67969 13.8797C9.46823 14.0911 9.3625 14.35 9.3625 14.6562C9.3625 14.9625 9.46823 15.2214 9.67969 15.4328C9.89115 15.6443 10.15 15.75 10.4563 15.75ZM9.66875 12.3813H11.2875C11.2875 11.9 11.3422 11.5208 11.4516 11.2438C11.5609 10.9667 11.8708 10.5875 12.3813 10.1062C12.7604 9.72708 13.0594 9.36615 13.2781 9.02344C13.4969 8.68073 13.6062 8.26875 13.6062 7.7875C13.6062 6.97083 13.3073 6.34375 12.7094 5.90625C12.1115 5.46875 11.4042 5.25 10.5875 5.25C9.75625 5.25 9.08177 5.46875 8.56406 5.90625C8.04635 6.34375 7.68542 6.86875 7.48125 7.48125L8.925 8.05C8.99792 7.7875 9.16198 7.50312 9.41719 7.19688C9.6724 6.89062 10.0625 6.7375 10.5875 6.7375C11.0542 6.7375 11.4042 6.8651 11.6375 7.12031C11.8708 7.37552 11.9875 7.65625 11.9875 7.9625C11.9875 8.25417 11.9 8.5276 11.725 8.78281C11.55 9.03802 11.3313 9.275 11.0688 9.49375C10.4271 10.0625 10.0333 10.4927 9.8875 10.7844C9.74167 11.076 9.66875 11.6083 9.66875 12.3813ZM10.5 19.25C9.28958 19.25 8.15208 19.0203 7.0875 18.5609C6.02292 18.1016 5.09687 17.4781 4.30938 16.6906C3.52187 15.9031 2.89844 14.9771 2.43906 13.9125C1.97969 12.8479 1.75 11.7104 1.75 10.5C1.75 9.28958 1.97969 8.15208 2.43906 7.0875C2.89844 6.02292 3.52187 5.09687 4.30938 4.30938C5.09687 3.52187 6.02292 2.89844 7.0875 2.43906C8.15208 1.97969 9.28958 1.75 10.5 1.75C11.7104 1.75 12.8479 1.97969 13.9125 2.43906C14.9771 2.89844 15.9031 3.52187 16.6906 4.30938C17.4781 5.09687 18.1016 6.02292 18.5609 7.0875C19.0203 8.15208 19.25 9.28958 19.25 10.5C19.25 11.7104 19.0203 12.8479 18.5609 13.9125C18.1016 14.9771 17.4781 15.9031 16.6906 16.6906C15.9031 17.4781 14.9771 18.1016 13.9125 18.5609C12.8479 19.0203 11.7104 19.25 10.5 19.25ZM10.5 17.5C12.4542 17.5 14.1094 16.8219 15.4656 15.4656C16.8219 14.1094 17.5 12.4542 17.5 10.5C17.5 8.54583 16.8219 6.89063 15.4656 5.53438C14.1094 4.17813 12.4542 3.5 10.5 3.5C8.54583 3.5 6.89063 4.17813 5.53438 5.53438C4.17813 6.89063 3.5 8.54583 3.5 10.5C3.5 12.4542 4.17813 14.1094 5.53438 15.4656C6.89063 16.8219 8.54583 17.5 10.5 17.5Z" fill="white"/>
</g>
</svg>
