<svg width="21" height="21" viewBox="0 0 21 21" fill="none" xmlns="http://www.w3.org/2000/svg">
<mask id="mask0_705_984" style="mask-type:alpha" maskUnits="userSpaceOnUse" x="0" y="0" width="21" height="21">
<rect width="21" height="21" fill="#D9D9D9"/>
</mask>
<g mask="url(#mask0_705_984)">
<path d="M6.125 12.25C5.64375 12.25 5.23177 12.0786 4.88906 11.7359C4.54635 11.3932 4.375 10.9812 4.375 10.5C4.375 10.0188 4.54635 9.60677 4.88906 9.26406C5.23177 8.92135 5.64375 8.75 6.125 8.75C6.60625 8.75 7.01823 8.92135 7.36094 9.26406C7.70365 9.60677 7.875 10.0188 7.875 10.5C7.875 10.9812 7.70365 11.3932 7.36094 11.7359C7.01823 12.0786 6.60625 12.25 6.125 12.25ZM6.125 15.75C4.66667 15.75 3.42708 15.2396 2.40625 14.2188C1.38542 13.1979 0.875 11.9583 0.875 10.5C0.875 9.04167 1.38542 7.80208 2.40625 6.78125C3.42708 5.76042 4.66667 5.25 6.125 5.25C7.10208 5.25 7.98802 5.49062 8.78281 5.97188C9.5776 6.45312 10.2083 7.0875 10.675 7.875H18.375L21 10.5L17.0625 14.4375L15.3125 13.125L13.5625 14.4375L11.7031 13.125H10.675C10.2083 13.9125 9.5776 14.5469 8.78281 15.0281C7.98802 15.5094 7.10208 15.75 6.125 15.75ZM6.125 14C6.94167 14 7.6599 13.7521 8.27969 13.2563C8.89948 12.7604 9.31146 12.1333 9.51562 11.375H12.25L13.5188 12.2719L15.3125 10.9375L16.8656 12.1406L18.5063 10.5L17.6313 9.625H9.51562C9.31146 8.86667 8.89948 8.23958 8.27969 7.74375C7.6599 7.24792 6.94167 7 6.125 7C5.1625 7 4.33854 7.34271 3.65313 8.02813C2.96771 8.71354 2.625 9.5375 2.625 10.5C2.625 11.4625 2.96771 12.2865 3.65313 12.9719C4.33854 13.6573 5.1625 14 6.125 14Z" fill="white"/>
</g>
</svg>
