<svg width="30" height="24" viewBox="0 0 30 24" fill="none" xmlns="http://www.w3.org/2000/svg">
<path d="M4.33301 24V11.5L1.93301 13.3333L0.333008 11.2L14.9997 0L29.6663 11.2L28.0663 13.3L25.6663 11.5V24H4.33301ZM6.99967 21.3333H22.9997V9.46667L14.9997 3.36667L6.99967 9.46667V21.3333ZM9.66634 16C9.28856 16 8.9719 15.8722 8.71634 15.6167C8.46079 15.3611 8.33301 15.0444 8.33301 14.6667C8.33301 14.2889 8.46079 13.9722 8.71634 13.7167C8.9719 13.4611 9.28856 13.3333 9.66634 13.3333C10.0441 13.3333 10.3608 13.4611 10.6163 13.7167C10.8719 13.9722 10.9997 14.2889 10.9997 14.6667C10.9997 15.0444 10.8719 15.3611 10.6163 15.6167C10.3608 15.8722 10.0441 16 9.66634 16ZM14.9997 16C14.6219 16 14.3052 15.8722 14.0497 15.6167C13.7941 15.3611 13.6663 15.0444 13.6663 14.6667C13.6663 14.2889 13.7941 13.9722 14.0497 13.7167C14.3052 13.4611 14.6219 13.3333 14.9997 13.3333C15.3775 13.3333 15.6941 13.4611 15.9497 13.7167C16.2052 13.9722 16.333 14.2889 16.333 14.6667C16.333 15.0444 16.2052 15.3611 15.9497 15.6167C15.6941 15.8722 15.3775 16 14.9997 16ZM20.333 16C19.9552 16 19.6386 15.8722 19.383 15.6167C19.1275 15.3611 18.9997 15.0444 18.9997 14.6667C18.9997 14.2889 19.1275 13.9722 19.383 13.7167C19.6386 13.4611 19.9552 13.3333 20.333 13.3333C20.7108 13.3333 21.0275 13.4611 21.283 13.7167C21.5386 13.9722 21.6663 14.2889 21.6663 14.6667C21.6663 15.0444 21.5386 15.3611 21.283 15.6167C21.0275 15.8722 20.7108 16 20.333 16Z" fill="#034C50"/>
</svg>
