<svg width="22" height="22" viewBox="0 0 22 22" fill="none" xmlns="http://www.w3.org/2000/svg">
<mask id="mask0_705_951" style="mask-type:alpha" maskUnits="userSpaceOnUse" x="0" y="0" width="22" height="22">
<rect width="22" height="22" fill="#D9D9D9"/>
</mask>
<g mask="url(#mask0_705_951)">
<path d="M8.47926 20.1668L8.1126 17.2335C7.91399 17.1571 7.72683 17.0654 7.55114 16.9585C7.37544 16.8516 7.20357 16.737 7.03551 16.6147L4.30843 17.7606L1.7876 13.4064L4.14801 11.6189C4.13274 11.512 4.1251 11.4088 4.1251 11.3095V10.6908C4.1251 10.5915 4.13274 10.4884 4.14801 10.3814L1.7876 8.59391L4.30843 4.23975L7.03551 5.38558C7.20357 5.26336 7.37926 5.14877 7.5626 5.04183C7.74593 4.93489 7.92926 4.84322 8.1126 4.76683L8.47926 1.8335H13.5209L13.8876 4.76683C14.0862 4.84322 14.2734 4.93489 14.4491 5.04183C14.6248 5.14877 14.7966 5.26336 14.9647 5.38558L17.6918 4.23975L20.2126 8.59391L17.8522 10.3814C17.8675 10.4884 17.8751 10.5915 17.8751 10.6908V11.3095C17.8751 11.4088 17.8598 11.512 17.8293 11.6189L20.1897 13.4064L17.6688 17.7606L14.9647 16.6147C14.7966 16.737 14.6209 16.8516 14.4376 16.9585C14.2543 17.0654 14.0709 17.1571 13.8876 17.2335L13.5209 20.1668H8.47926ZM10.0834 18.3335H11.8938L12.2147 15.9043C12.6883 15.7821 13.1275 15.6026 13.5324 15.3658C13.9373 15.129 14.3077 14.8425 14.6438 14.5064L16.9126 15.446L17.8063 13.8877L15.8355 12.3981C15.9119 12.1842 15.9654 11.9588 15.9959 11.722C16.0265 11.4852 16.0418 11.2446 16.0418 11.0002C16.0418 10.7557 16.0265 10.5151 15.9959 10.2783C15.9654 10.0415 15.9119 9.81614 15.8355 9.60225L17.8063 8.11266L16.9126 6.55433L14.6438 7.51683C14.3077 7.16544 13.9373 6.87134 13.5324 6.63454C13.1275 6.39773 12.6883 6.21822 12.2147 6.096L11.9168 3.66683H10.1063L9.78551 6.096C9.3119 6.21822 8.87267 6.39773 8.46781 6.63454C8.06294 6.87134 7.69246 7.1578 7.35635 7.49391L5.0876 6.55433L4.19385 8.11266L6.16468 9.57933C6.08829 9.8085 6.03482 10.0377 6.00426 10.2668C5.97371 10.496 5.95843 10.7404 5.95843 11.0002C5.95843 11.2446 5.97371 11.4814 6.00426 11.7106C6.03482 11.9397 6.08829 12.1689 6.16468 12.3981L4.19385 13.8877L5.0876 15.446L7.35635 14.4835C7.69246 14.8349 8.06294 15.129 8.46781 15.3658C8.87267 15.6026 9.3119 15.7821 9.78551 15.9043L10.0834 18.3335ZM11.0459 14.2085C11.932 14.2085 12.6883 13.8953 13.3147 13.2689C13.9411 12.6425 14.2543 11.8863 14.2543 11.0002C14.2543 10.1141 13.9411 9.3578 13.3147 8.73141C12.6883 8.10502 11.932 7.79183 11.0459 7.79183C10.1445 7.79183 9.38447 8.10502 8.76572 8.73141C8.14697 9.3578 7.8376 10.1141 7.8376 11.0002C7.8376 11.8863 8.14697 12.6425 8.76572 13.2689C9.38447 13.8953 10.1445 14.2085 11.0459 14.2085Z" fill="white"/>
</g>
</svg>
