<svg width="24" height="21" viewBox="0 0 24 21" fill="none" xmlns="http://www.w3.org/2000/svg">
<path d="M16.1359 11.1984L14.4288 9.49129C14.5509 8.85144 14.3648 8.24964 13.8704 7.68587C13.376 7.1221 12.7395 6.90127 11.9609 7.02337L10.3016 5.36412C10.573 5.24275 10.8476 5.15172 11.1253 5.09102C11.403 5.03034 11.6946 4.99999 12 4.99999C13.25 4.99999 14.3125 5.43749 15.1875 6.31249C16.0625 7.18749 16.5 8.24999 16.5 9.49999C16.5 9.79746 16.4697 10.089 16.409 10.3747C16.3483 10.6604 16.2573 10.935 16.1359 11.1984ZM19.4913 14.5157L17.9218 12.9842C18.5272 12.5089 19.0668 11.9907 19.5405 11.4296C20.0142 10.8686 20.4301 10.2254 20.7881 9.49999C19.9468 7.82064 18.7509 6.48414 17.2006 5.49049C15.6502 4.49683 13.9167 3.99999 12 3.99999C11.5167 3.99999 11.0526 4.03134 10.6079 4.09402C10.1631 4.1567 9.72972 4.24873 9.30762 4.37009L7.6022 2.66467C8.28553 2.38134 8.9935 2.16883 9.7261 2.02717C10.4587 1.8855 11.2167 1.81467 12 1.81467C14.5406 1.81467 16.8112 2.52046 18.8117 3.93204C20.8122 5.34364 22.2701 7.19963 23.1853 9.49999C22.802 10.4913 22.2939 11.4158 21.6609 12.2734C21.0279 13.131 20.3047 13.8784 19.4913 14.5157ZM19.7283 20.6717L15.6359 16.6234C15.0605 16.8107 14.473 16.9512 13.8734 17.0448C13.2738 17.1385 12.6493 17.1853 12 17.1853C9.45545 17.1853 7.1829 16.4775 5.18235 15.0619C3.18181 13.6464 1.72593 11.7924 0.814697 9.49999C1.1607 8.62463 1.60236 7.8008 2.1397 7.02852C2.67701 6.25624 3.28336 5.56213 3.95872 4.94619L1.23262 2.18207L2.6984 0.716293L21.1881 19.2119L19.7283 20.6717ZM5.49622 6.46574C5.02086 6.90706 4.59413 7.37409 4.21605 7.86684C3.83798 8.35959 3.50528 8.90398 3.21795 9.49999C4.05128 11.1833 5.24413 12.5208 6.7965 13.5125C8.34885 14.5042 10.0834 15 12 15C12.2975 15 12.5956 14.9822 12.8943 14.9465C13.1931 14.9108 13.5091 14.8679 13.8424 14.8179L12.9424 13.8679C12.779 13.9139 12.6219 13.9475 12.4712 13.9685C12.3205 13.9895 12.1634 14 12 14C10.75 14 9.68752 13.5625 8.81252 12.6875C7.93752 11.8125 7.50002 10.75 7.50002 9.49999C7.50002 9.34058 7.50953 9.18451 7.52855 9.03179C7.54758 8.87908 7.57811 8.72101 7.62012 8.55759L5.49622 6.46574Z" fill="#D2D2D2"/>
</svg>
